<svg width="193" height="71" viewBox="0 0 193 71" fill="none" xmlns="http://www.w3.org/2000/svg">
<path d="M96.1907 70.9695C70.4515 70.9695 44.6656 71.0628 18.9264 70.9229C8.52814 70.8763 0.181545 62.4831 0.088287 52.0848C-0.00497107 41.0337 -0.0516001 29.9827 0.088287 18.9316C0.228174 8.30016 8.80791 0.093445 19.4393 0.093445C70.3582 0.093445 121.277 0.186712 172.243 0.000195473C183.061 -0.0464335 192.806 8.25353 192.573 20.3304C192.386 30.7287 192.526 41.1736 192.526 51.5719C192.526 62.1567 184.226 70.8763 173.641 70.9229C147.809 71.0162 121.977 70.9695 96.1907 70.9695ZM35.3864 59.7786C40.9353 59.7786 46.4375 59.7786 51.9864 59.7786C56.2762 59.7786 60.0998 56.7943 61.1257 52.5511C61.4521 51.1988 61.7318 49.8466 61.965 48.4477C63.8768 38.7023 65.7886 28.9568 67.6537 19.2113C68.5863 14.222 66.0217 11.2378 60.9392 11.2378C50.1679 11.2378 39.3965 11.2378 28.5786 11.2378C23.5893 11.2378 19.7191 14.3153 18.7865 19.2113C16.595 30.2624 14.45 41.3135 12.3517 52.3646C11.559 56.4679 14.3568 59.7319 18.5534 59.7786C24.1955 59.7786 29.791 59.7786 35.3864 59.7786ZM90.6885 22.0557C87.6109 22.0557 84.5334 22.0557 81.4559 22.0557C81.2694 22.0557 81.1295 22.0557 80.943 22.0557C76.2335 22.0557 72.5032 25.2265 71.6638 29.8894C70.8245 34.459 69.9386 39.0287 69.0526 43.5517C68.2133 47.7949 70.6846 50.9657 75.0211 51.0123C81.7357 51.059 88.4036 51.059 95.1182 51.0123C99.2216 51.0123 102.999 48.0747 103.838 44.0646C104.91 39.1219 105.843 34.1793 106.775 29.2366C107.568 25.1332 105.05 22.1023 100.854 22.0557C97.403 22.0557 94.0458 22.0557 90.6885 22.0557ZM126.313 22.1023C122.256 22.1023 118.153 22.149 114.096 22.0557C112.464 22.0091 111.765 22.7551 111.485 24.2006C109.9 32.454 108.268 40.7073 106.636 48.9607C106.356 50.4062 106.915 51.059 108.361 51.0123C110.086 51.0123 111.858 51.0123 113.583 51.0123C114.982 51.0123 115.728 50.3595 115.961 49.0073C116.381 46.7691 116.941 44.5775 117.267 42.3393C117.454 41.1736 117.92 40.8006 119.039 40.8472C123.002 40.8938 126.966 40.8938 130.929 40.8938C133.541 40.8938 133.68 40.8006 134.193 38.1427C134.38 37.3034 134.566 36.4641 134.706 35.5781C135.079 33.6197 134.799 33.2933 132.888 33.2933C128.738 33.2933 124.634 33.2933 120.484 33.2933C120.018 33.2933 119.365 33.5731 119.132 32.8736C118.619 31.3815 119.971 29.4697 121.557 29.4697C126.686 29.4697 131.815 29.4231 136.944 29.5164C138.483 29.5164 139.183 28.9102 139.369 27.418C139.509 26.3922 139.742 25.3664 139.929 24.3405C140.348 22.3355 140.162 22.1023 138.157 22.1023C134.24 22.0557 130.276 22.1023 126.313 22.1023ZM170.144 22.0557C167.16 22.0557 164.222 22.0091 161.238 22.0557C154.71 22.149 156.016 20.9832 154.617 27.4647C154.57 27.5579 154.57 27.6978 154.524 27.7911C154.244 28.9102 154.663 29.4231 155.829 29.4231C157.694 29.4231 159.56 29.4231 161.425 29.4231C164.316 29.4231 164.269 29.4231 163.71 32.2675C162.59 37.7231 161.565 43.1787 160.492 48.6809C160.166 50.4528 160.539 50.9657 162.264 51.0123C163.849 51.0123 165.435 50.9657 166.974 51.0123C168.792 51.1056 169.585 50.3129 169.911 48.541C170.984 42.6191 172.243 36.6972 173.315 30.7753C173.502 29.6562 173.968 29.3765 175.04 29.3765C177.139 29.4231 179.237 29.3765 181.335 29.4231C182.641 29.4231 183.434 29.0501 183.573 27.6046C183.713 26.3456 183.946 25.0866 184.32 23.8742C184.786 22.3355 184.133 22.0091 182.781 22.0557C178.538 22.1023 174.341 22.1023 170.144 22.0557ZM148.369 22.0557C147.716 22.0557 147.11 22.0557 146.457 22.0557C143.846 22.0557 143.566 22.2889 143.006 24.9001C142.12 29.4697 141.234 33.9927 140.395 38.5624C139.742 41.9663 139.043 45.3702 138.437 48.8208C138.11 50.6393 138.483 51.0123 140.302 51.0123C141.98 51.0123 143.659 51.0123 145.384 51.0123C146.69 51.0123 147.483 50.3595 147.716 49.1005C149.348 40.6607 150.98 32.2675 152.612 23.8276C152.845 22.6619 152.425 22.0091 151.166 22.0557C150.234 22.1023 149.301 22.1023 148.369 22.0557Z" fill="#B99763"/>
<path d="M35.3864 59.7786C29.791 59.7786 24.1955 59.7786 18.6 59.7786C14.4034 59.7786 11.6056 56.4679 12.3983 52.3645C14.5433 41.3135 16.6416 30.2624 18.8331 19.2113C19.8123 14.3153 23.6359 11.2378 28.6252 11.2378C39.3965 11.2378 50.1678 11.2378 60.9858 11.2378C66.0683 11.2378 68.6329 14.2686 67.7004 19.2113C65.8352 28.9568 63.9234 38.7022 62.0116 48.4477C61.7318 49.7999 61.4987 51.1988 61.1723 52.5511C60.1465 56.7477 56.3229 59.7319 52.033 59.7786C46.4375 59.7786 40.8887 59.7786 35.3864 59.7786ZM37.1117 49.2404C40.469 49.2404 43.8729 49.2404 47.2302 49.2404C50.5409 49.2404 52.8723 47.655 54.4111 44.8106C55.81 42.1994 55.9498 39.355 55.297 36.5107C55.1105 35.7646 55.0639 35.2051 55.6701 34.5989C57.0223 33.2933 57.5819 31.568 57.8616 29.7495C58.6077 24.8534 55.7167 20.7501 51.3336 20.7034C44.5257 20.6102 37.7179 20.6568 30.9101 20.7034C29.4179 20.7034 28.532 21.4495 28.2522 22.9416C28.1123 23.6877 27.9724 24.4338 27.8325 25.1798C27.5061 27.2781 27.7859 27.6512 29.9308 27.6512C35.7595 27.6512 41.5881 27.6512 47.4167 27.6512C48.0695 27.6512 48.8622 27.3714 49.2353 28.304C49.7948 29.8894 48.4892 31.8011 46.8106 31.8011C43.8263 31.8011 40.8887 31.8478 37.9044 31.8011C36.5055 31.7545 35.6662 32.3607 35.3398 33.6663C35.1067 34.6455 34.9668 35.6247 34.8269 36.6039C34.5937 38.0494 35.1533 38.7955 36.7387 38.7489C39.3499 38.7022 41.9611 38.7489 44.619 38.7489C46.5774 38.7489 46.8106 39.1685 46.251 41.0337C45.9246 42.1994 45.0853 42.3393 44.1061 42.3393C38.6505 42.3393 33.1482 42.3393 27.6927 42.3393C26.0606 42.3393 25.1747 43.0387 24.8483 44.5775C24.7084 45.2769 24.5685 45.9297 24.4286 46.6292C24.0556 48.7275 24.5219 49.3337 26.6202 49.3337C30.1174 49.287 33.6145 49.2404 37.1117 49.2404Z" fill="#FDFDFC"/>
<path d="M90.6885 22.0557C94.0458 22.0557 97.4497 22.0557 100.807 22.0557C104.957 22.0557 107.475 25.1332 106.729 29.2366C105.796 34.1793 104.864 39.1686 103.791 44.0646C102.905 48.0747 99.175 51.0123 95.0716 51.0123C88.357 51.059 81.6891 51.059 74.9745 51.0123C70.638 50.9657 68.1667 47.7949 69.006 43.5517C69.8919 38.9821 70.7779 34.4591 71.6172 29.8894C72.4565 25.2265 76.1869 22.1024 80.8964 22.0557C81.0829 22.0557 81.2228 22.0557 81.4093 22.0557C84.4868 22.0557 87.5643 22.0557 90.6885 22.0557ZM86.4452 43.132C88.5902 43.132 90.7351 43.132 92.9267 43.132C93.8126 43.132 94.6053 42.9922 94.7918 41.9663C95.4913 38.4225 96.1441 34.9253 96.7969 31.3815C96.9834 30.2624 96.5171 29.7961 95.3514 29.7961C91.1548 29.8428 86.9582 29.8428 82.7615 29.7961C81.5492 29.7961 80.943 30.4023 80.7099 31.5214C80.0571 34.8321 79.4975 38.1427 78.7981 41.4068C78.5183 42.8056 79.0312 43.1787 80.2902 43.132C82.3885 43.0854 84.4402 43.132 86.4452 43.132Z" fill="#FDFDFC"/>
<path d="M126.313 22.1023C130.276 22.1023 134.24 22.1023 138.203 22.1023C140.208 22.1023 140.395 22.3355 139.975 24.3405C139.789 25.3663 139.509 26.3922 139.416 27.418C139.229 28.8635 138.576 29.5163 136.991 29.5163C131.862 29.4231 126.733 29.4697 121.603 29.4697C120.065 29.4697 118.666 31.3815 119.179 32.8736C119.412 33.5731 120.065 33.2933 120.531 33.2933C124.681 33.3399 128.784 33.2933 132.934 33.2933C134.893 33.2933 135.126 33.6197 134.753 35.5781C134.613 36.4174 134.38 37.3034 134.24 38.1427C133.68 40.8005 133.587 40.8938 130.976 40.8938C127.012 40.8938 123.049 40.9404 119.086 40.8472C117.92 40.8472 117.453 41.1736 117.314 42.3393C116.987 44.5775 116.428 46.7691 116.008 49.0073C115.775 50.3595 115.029 51.0589 113.63 51.0123C111.905 51.0123 110.133 51.0123 108.407 51.0123C106.962 51.0123 106.402 50.4061 106.682 48.9606C108.314 40.7073 109.9 32.454 111.532 24.2006C111.811 22.7551 112.511 22.009 114.143 22.0557C118.153 22.1489 122.21 22.1023 126.313 22.1023Z" fill="#FDFDFC"/>
<path d="M170.144 22.0557C174.341 22.0557 178.538 22.1023 182.734 22.0557C184.086 22.0557 184.739 22.3821 184.273 23.8742C183.9 25.0866 183.667 26.3456 183.527 27.6046C183.387 29.0501 182.594 29.4697 181.289 29.4231C179.19 29.3765 177.092 29.4697 174.994 29.3765C173.921 29.3298 173.455 29.6562 173.268 30.7753C172.196 36.6972 170.937 42.6191 169.865 48.541C169.538 50.2663 168.745 51.1056 166.927 51.0123C165.341 50.9191 163.803 51.0123 162.217 51.0123C160.539 51.0123 160.119 50.4528 160.445 48.6809C161.518 43.2253 162.59 37.723 163.663 32.2675C164.222 29.3765 164.269 29.4231 161.378 29.4231C159.513 29.4231 157.648 29.4231 155.783 29.4231C154.617 29.4231 154.197 28.9102 154.477 27.7911C154.524 27.6978 154.524 27.5579 154.57 27.4647C155.969 20.9832 154.663 22.149 161.192 22.0557C164.222 22.0557 167.16 22.0557 170.144 22.0557Z" fill="#FDFDFC"/>
<path d="M148.369 22.1024C149.301 22.1024 150.234 22.1024 151.166 22.1024C152.425 22.1024 152.798 22.7552 152.612 23.8743C150.98 32.3141 149.348 40.7073 147.716 49.1472C147.483 50.4062 146.69 51.059 145.384 51.059C143.706 51.059 142.027 51.059 140.302 51.059C138.483 51.059 138.11 50.6393 138.437 48.8674C139.043 45.4635 139.742 42.0129 140.395 38.609C141.281 34.0394 142.12 29.4697 143.006 24.9467C143.519 22.3355 143.799 22.1024 146.457 22.1024C147.11 22.0557 147.716 22.0557 148.369 22.1024Z" fill="#FDFDFC"/>
<path d="M37.1117 49.2404C33.6145 49.2404 30.1174 49.2404 26.6202 49.2404C24.5219 49.2404 24.0556 48.6342 24.4286 46.5359C24.5685 45.8365 24.7084 45.1837 24.8483 44.4842C25.1747 42.9455 26.0606 42.246 27.6926 42.246C33.1482 42.2927 38.6505 42.246 44.1061 42.246C45.0853 42.246 45.9246 42.1062 46.251 40.9404C46.8105 39.0753 46.5308 38.6556 44.619 38.6556C42.0077 38.6556 39.3965 38.609 36.7387 38.6556C35.1999 38.7022 34.5937 37.9562 34.8269 36.5107C34.9668 35.5315 35.1067 34.5523 35.3398 33.573C35.6662 32.2674 36.5055 31.6613 37.9044 31.7079C40.8887 31.7545 43.8263 31.7545 46.8105 31.7079C48.4892 31.7079 49.8414 29.7961 49.2353 28.2107C48.9088 27.2781 48.0695 27.5579 47.4167 27.5579C41.5881 27.5579 35.7595 27.5579 29.9308 27.5579C27.7859 27.5579 27.4595 27.1849 27.8325 25.0866C27.9724 24.3405 28.1123 23.5944 28.2522 22.8484C28.4853 21.3562 29.4179 20.6102 30.91 20.6102C37.7179 20.6102 44.5257 20.5169 51.3336 20.6102C55.7167 20.6568 58.6077 24.7602 57.8616 29.6562C57.5818 31.4747 57.0223 33.2 55.67 34.5056C55.0639 35.1118 55.1105 35.6714 55.297 36.4174C55.9498 39.2618 55.8099 42.1062 54.4111 44.7174C52.8723 47.5617 50.5875 49.1471 47.2302 49.1471C43.8729 49.2404 40.469 49.2404 37.1117 49.2404Z" fill="#B99763"/>
<path d="M86.4452 43.132C84.3935 43.132 82.3885 43.0854 80.3368 43.132C79.0312 43.1786 78.5183 42.759 78.8447 41.4067C79.5441 38.0961 80.1037 34.7854 80.7565 31.5214C80.9896 30.4023 81.5958 29.7961 82.8082 29.7961C87.0048 29.8427 91.2014 29.7961 95.398 29.7961C96.5171 29.7961 97.03 30.2624 96.8435 31.3815C96.1907 34.9253 95.4912 38.4225 94.8384 41.9663C94.6519 42.9921 93.8592 43.132 92.9733 43.132C90.7817 43.132 88.5902 43.132 86.4452 43.132Z" fill="#B99763"/>
</svg>
