<svg width="327" height="160" viewBox="0 0 327 160" fill="none" xmlns="http://www.w3.org/2000/svg">
<g clip-path="url(#clip0_3009_3)">
<path d="M18.2507 160C14.4444 160 11.1749 159.269 8.44215 157.806C5.78032 156.413 3.59643 154.256 2.17152 151.613C0.682689 148.73 -0.0557183 145.519 0.0243805 142.276C-0.00836391 139.798 0.413381 137.336 1.26874 135.011C2.05401 132.903 3.28584 130.991 4.87986 129.403C6.51676 127.806 8.48151 126.583 10.6381 125.819C13.0905 124.958 15.676 124.538 18.2751 124.576C19.8421 124.584 21.4041 124.755 22.9354 125.088C24.4269 125.386 25.8659 125.904 27.2053 126.624C28.0237 127.019 28.6916 127.67 29.1084 128.477C29.4588 129.186 29.5864 129.985 29.4744 130.769C29.3688 131.528 29.0753 132.248 28.6204 132.865C28.1924 133.466 27.5731 133.904 26.8637 134.109C26.0713 134.311 25.2312 134.197 24.5213 133.792C23.5883 133.352 22.6162 133.002 21.6178 132.743C20.6366 132.497 19.6284 132.374 18.6167 132.378C16.8561 132.304 15.1068 132.69 13.5416 133.499C12.1947 134.259 11.1261 135.429 10.4917 136.839C9.75984 138.547 9.4101 140.394 9.46693 142.251C9.41185 144.116 9.76145 145.971 10.4917 147.688C11.1211 149.107 12.1904 150.287 13.5416 151.053C15.0972 151.866 16.8378 152.261 18.5923 152.198C19.5118 152.189 20.4278 152.083 21.325 151.881C22.321 151.663 23.2875 151.328 24.2041 150.882C25.0114 150.479 25.9309 150.358 26.8149 150.541C27.5458 150.714 28.1981 151.126 28.6692 151.711C29.1411 152.295 29.4522 152.993 29.572 153.734C29.7025 154.505 29.5917 155.297 29.2548 156.002C28.8786 156.784 28.2518 157.419 27.4736 157.806C26.1584 158.557 24.7344 159.1 23.2526 159.415C21.6132 159.801 19.9349 159.997 18.2507 160Z" fill="url(#paint0_linear_3009_3)"/>
<path d="M49.8723 160C46.6734 160.068 43.5117 159.304 40.6981 157.781C38.1005 156.341 35.974 154.183 34.5739 151.565C33.0758 148.693 32.3288 145.489 32.4023 142.251C32.3696 139.774 32.7913 137.312 33.6467 134.986C34.4249 132.887 35.639 130.976 37.209 129.379C38.7787 127.804 40.667 126.582 42.7477 125.795C45.0249 124.943 47.4408 124.521 49.8723 124.552C53.0607 124.481 56.2131 125.237 59.022 126.746C61.6097 128.177 63.7344 130.317 65.1463 132.914C66.6773 135.793 67.4418 139.017 67.3666 142.276C67.3993 144.753 66.9776 147.216 66.1222 149.541C65.341 151.646 64.1276 153.564 62.5599 155.173C60.9956 156.76 59.1062 157.991 57.0213 158.781C54.7348 159.628 52.3104 160.041 49.8723 160ZM49.8723 152.491C51.4261 152.54 52.958 152.114 54.2642 151.272C55.5161 150.4 56.4835 149.179 57.0457 147.761C57.7372 146.009 58.0691 144.135 58.0217 142.251C58.0217 139.033 57.3059 136.53 55.8745 134.742C54.4431 132.955 52.4423 132.061 49.8723 132.061C48.3303 132.019 46.8106 132.435 45.5048 133.255C44.2426 134.101 43.2648 135.308 42.6989 136.717C42.003 138.477 41.6711 140.36 41.7229 142.251C41.7229 145.47 42.4386 147.981 43.87 149.785C45.3015 151.589 47.3022 152.499 49.8723 152.515V152.491Z" fill="url(#paint1_linear_3009_3)"/>
<path d="M76.8579 159.903C75.4916 159.903 74.4522 159.542 73.7348 158.83C73.0175 158.118 72.6613 157.06 72.6613 155.66V129.111C72.6613 127.681 73.0191 126.583 73.7348 125.82C74.0976 125.438 74.5378 125.138 75.0259 124.941C75.5141 124.743 76.0389 124.652 76.5652 124.674C77.4181 124.627 78.266 124.831 79.0051 125.259C79.7511 125.806 80.4093 126.464 80.957 127.209L96.4262 146.518H95.0599V128.867C95.0599 127.502 95.4096 126.462 96.109 125.746C96.8085 125.031 97.8414 124.674 99.2077 124.674C100.574 124.674 101.607 125.031 102.306 125.746C103.006 126.462 103.356 127.502 103.356 128.867V155.88C103.404 156.942 103.057 157.985 102.38 158.805C102.049 159.171 101.641 159.46 101.185 159.649C100.73 159.839 100.238 159.925 99.7445 159.903C98.8341 159.95 97.9288 159.739 97.1338 159.293C96.3632 158.759 95.6801 158.11 95.1086 157.367L79.6395 138.009H81.0302V155.66C81.0302 157.06 80.6789 158.098 79.9811 158.83C79.2832 159.561 78.2243 159.903 76.8579 159.903Z" fill="url(#paint2_linear_3009_3)"/>
<path d="M114.335 159.464C112.808 159.464 111.642 159.064 110.846 158.269C110.051 157.474 109.651 156.319 109.651 154.856V129.745C109.651 128.246 110.049 127.1 110.846 126.307C111.642 125.512 112.798 125.112 114.335 125.112H130.878C131.354 125.076 131.832 125.134 132.284 125.285C132.737 125.436 133.155 125.676 133.513 125.99C133.823 126.331 134.061 126.732 134.212 127.168C134.363 127.604 134.424 128.066 134.392 128.526C134.424 128.997 134.363 129.47 134.212 129.917C134.061 130.365 133.824 130.778 133.513 131.134C133.158 131.455 132.742 131.701 132.288 131.856C131.835 132.011 131.356 132.072 130.878 132.036H118.239V138.57H129.829C130.3 138.538 130.774 138.599 131.222 138.749C131.67 138.9 132.083 139.137 132.44 139.448C133.024 140.183 133.342 141.093 133.342 142.032C133.342 142.971 133.024 143.881 132.44 144.616C132.083 144.927 131.67 145.164 131.222 145.315C130.774 145.465 130.3 145.526 129.829 145.494H118.264V152.564H130.902C131.591 152.591 132.258 152.812 132.827 153.2C133.396 153.589 133.843 154.13 134.119 154.761C134.394 155.392 134.485 156.088 134.382 156.769C134.28 157.45 133.987 158.088 133.538 158.61C133.179 158.925 132.761 159.164 132.309 159.315C131.856 159.466 131.378 159.525 130.902 159.488L114.335 159.464Z" fill="url(#paint3_linear_3009_3)"/>
<path d="M142.687 159.902C141.663 159.941 140.659 159.613 139.857 158.976C139.498 158.69 139.199 158.336 138.977 157.935C138.755 157.533 138.615 157.092 138.564 156.636C138.528 156.115 138.595 155.593 138.763 155.099C138.93 154.605 139.195 154.15 139.54 153.759L149.885 140.106V144.153L139.833 130.842C139.138 130.031 138.788 128.981 138.857 127.916C138.907 127.46 139.048 127.019 139.27 126.617C139.492 126.216 139.791 125.862 140.15 125.576C140.952 124.939 141.956 124.61 142.98 124.649C143.858 124.632 144.722 124.869 145.469 125.332C146.318 125.919 147.047 126.664 147.616 127.526L154.887 137.619H151.959L159.279 127.526C159.835 126.648 160.566 125.893 161.426 125.307C162.178 124.859 163.04 124.631 163.915 124.649C164.95 124.606 165.968 124.925 166.794 125.551C167.153 125.832 167.453 126.181 167.675 126.579C167.897 126.976 168.037 127.415 168.087 127.867C168.163 128.948 167.813 130.016 167.111 130.842L157.01 144.153V140.106L167.355 153.759C167.704 154.147 167.971 154.602 168.139 155.097C168.307 155.592 168.372 156.115 168.331 156.636C168.28 157.092 168.14 157.533 167.918 157.935C167.696 158.336 167.397 158.69 167.038 158.976C166.22 159.618 165.198 159.947 164.159 159.902C163.3 159.916 162.454 159.688 161.719 159.244C160.85 158.654 160.104 157.901 159.523 157.026L152.008 146.664H154.838L147.396 157.026C146.816 157.901 146.07 158.654 145.2 159.244C144.442 159.697 143.571 159.925 142.687 159.902Z" fill="url(#paint4_linear_3009_3)"/>
<path d="M176.749 159.902C175.725 159.941 174.721 159.613 173.919 158.976C173.559 158.69 173.26 158.336 173.039 157.935C172.817 157.533 172.676 157.092 172.625 156.636C172.586 156.117 172.65 155.596 172.813 155.102C172.976 154.608 173.236 154.152 173.577 153.759L183.922 140.106V144.153L173.87 130.842C173.175 130.031 172.825 128.981 172.894 127.916C172.945 127.46 173.085 127.019 173.307 126.617C173.529 126.216 173.828 125.862 174.187 125.576C174.989 124.939 175.993 124.61 177.017 124.649C177.895 124.632 178.76 124.869 179.506 125.332C180.355 125.919 181.084 126.664 181.653 127.526L188.924 137.619H185.996L193.316 127.526C193.873 126.648 194.603 125.893 195.463 125.307C196.215 124.859 197.077 124.631 197.952 124.649C198.987 124.606 200.006 124.925 200.831 125.551C201.19 125.832 201.49 126.181 201.712 126.579C201.934 126.976 202.074 127.415 202.124 127.867C202.193 128.951 201.834 130.019 201.124 130.842L191.022 144.153V140.106L201.368 153.759C201.721 154.145 201.993 154.6 202.165 155.094C202.337 155.589 202.406 156.113 202.368 156.636C202.317 157.092 202.177 157.533 201.955 157.935C201.733 158.336 201.434 158.69 201.075 158.976C200.257 159.618 199.236 159.947 198.196 159.902C197.337 159.916 196.491 159.688 195.756 159.244C194.887 158.654 194.141 157.901 193.56 157.026L186.069 146.664H188.9L181.434 157.05C180.853 157.925 180.107 158.679 179.238 159.269C178.484 159.708 177.621 159.928 176.749 159.902Z" fill="url(#paint5_linear_3009_3)"/>
<path d="M210.835 159.902C209.811 159.941 208.807 159.613 208.004 158.976C207.645 158.69 207.346 158.336 207.124 157.935C206.902 157.533 206.762 157.092 206.711 156.636C206.675 156.115 206.743 155.593 206.91 155.099C207.078 154.605 207.342 154.15 207.687 153.759L218.033 140.106V144.153L207.98 130.842C207.294 130.027 206.953 128.978 207.028 127.916C207.079 127.46 207.22 127.019 207.442 126.617C207.663 126.216 207.963 125.862 208.322 125.576C209.124 124.939 210.128 124.61 211.152 124.649C212.03 124.632 212.894 124.869 213.641 125.332C214.49 125.919 215.219 126.664 215.788 127.526L223.059 137.619H220.131L227.451 127.526C228.007 126.648 228.738 125.893 229.598 125.307C230.349 124.859 231.212 124.631 232.087 124.649C233.122 124.606 234.14 124.925 234.966 125.551C235.325 125.832 235.625 126.181 235.847 126.579C236.069 126.976 236.209 127.415 236.259 127.867C236.335 128.948 235.984 130.016 235.283 130.842L225.182 144.153V140.106L235.527 153.759C235.876 154.147 236.143 154.602 236.311 155.097C236.478 155.592 236.544 156.115 236.503 156.636C236.452 157.092 236.312 157.533 236.09 157.935C235.868 158.336 235.569 158.69 235.21 158.976C234.391 159.618 233.37 159.947 232.331 159.902C231.471 159.916 230.626 159.688 229.891 159.244C229.021 158.654 228.275 157.901 227.695 157.026L220.131 146.664H222.961L215.495 157.05C214.914 157.925 214.168 158.679 213.299 159.269C212.552 159.704 211.699 159.923 210.835 159.902Z" fill="url(#paint6_linear_3009_3)"/>
<path d="M246.189 159.903C245.584 159.94 244.977 159.854 244.407 159.648C243.836 159.443 243.313 159.123 242.871 158.708C242.09 157.915 241.7 156.777 241.7 155.295V129.208C241.7 127.71 242.09 126.572 242.871 125.795C243.317 125.387 243.84 125.073 244.411 124.872C244.981 124.67 245.586 124.587 246.189 124.625C247.653 124.625 248.768 125.015 249.532 125.795C250.297 126.575 250.679 127.713 250.679 129.208V155.295C250.679 156.757 250.305 157.895 249.556 158.708C248.808 159.521 247.686 159.919 246.189 159.903Z" fill="url(#paint7_linear_3009_3)"/>
<path d="M273.517 160C270.318 160.069 267.156 159.304 264.342 157.781C261.744 156.343 259.617 154.184 258.218 151.565C256.72 148.693 255.973 145.489 256.047 142.251C256.014 139.774 256.436 137.312 257.291 134.986C258.069 132.887 259.283 130.976 260.853 129.379C262.422 127.802 264.311 126.58 266.392 125.795C268.669 124.943 271.085 124.521 273.517 124.552C276.705 124.481 279.857 125.237 282.666 126.746C285.253 128.179 287.377 130.318 288.791 132.914C290.309 135.788 291.065 139.003 290.987 142.251C291.019 144.729 290.598 147.191 289.742 149.517C288.959 151.621 287.746 153.539 286.18 155.148C284.616 156.736 282.726 157.967 280.641 158.757C278.364 159.609 275.948 160.03 273.517 160ZM273.517 152.491C275.07 152.54 276.602 152.114 277.909 151.272C279.158 150.397 280.124 149.177 280.69 147.761C281.382 146.009 281.713 144.135 281.666 142.251C281.666 139.033 280.95 136.53 279.519 134.742C278.084 132.953 276.103 132.061 273.517 132.061C271.966 132.014 270.437 132.43 269.125 133.255C267.863 134.101 266.885 135.308 266.319 136.717C265.621 138.477 265.289 140.36 265.343 142.251C265.343 145.47 266.059 147.981 267.49 149.785C268.921 151.589 270.93 152.499 273.517 152.515V152.491Z" fill="url(#paint8_linear_3009_3)"/>
<path d="M300.502 159.903C299.136 159.903 298.092 159.542 297.379 158.83C296.667 158.118 296.306 157.06 296.306 155.66V129.111C296.306 127.681 296.663 126.583 297.379 125.82C297.742 125.437 298.182 125.137 298.67 124.94C299.158 124.742 299.683 124.651 300.21 124.674C301.063 124.627 301.91 124.831 302.649 125.259C303.396 125.806 304.054 126.464 304.601 127.209L320.071 146.518H318.704V128.867C318.704 127.502 319.051 126.463 319.753 125.746C320.456 125.03 321.486 124.674 322.852 124.674C324.218 124.674 325.248 125.03 325.951 125.746C326.654 126.463 327 127.502 327 128.867V155.88C327.049 156.942 326.701 157.985 326.024 158.805C325.692 159.171 325.284 159.458 324.829 159.648C324.374 159.837 323.882 159.924 323.389 159.903C322.479 159.95 321.573 159.739 320.778 159.293C320.007 158.761 319.323 158.111 318.753 157.367L303.284 138.009H304.65V155.66C304.65 157.06 304.299 158.098 303.601 158.83C302.903 159.561 301.869 159.903 300.502 159.903Z" fill="url(#paint9_linear_3009_3)"/>
<path d="M136.344 84.4615C142.848 82.6281 149.236 79.2149 153.75 76.4503C150.869 75.9698 148.085 75.0245 145.508 73.6515C145.363 73.5714 145.247 73.4484 145.175 73.2995C145.103 73.1506 145.079 72.9831 145.106 72.82C145.133 72.6569 145.211 72.5062 145.327 72.3888C145.444 72.2714 145.594 72.193 145.757 72.1643C151.53 71.1891 157.01 68.9413 160.782 67.0689C161.069 66.9254 161.391 66.8635 161.711 66.8902C162.031 66.9169 162.338 67.031 162.597 67.2201L178.066 78.4738C178.326 78.6619 178.53 78.9179 178.654 79.2138C178.778 79.5097 178.818 79.834 178.769 80.1511C178.159 84.3103 177.671 90.1956 178.525 96.0078C178.549 96.1714 178.521 96.3384 178.445 96.4854C178.369 96.6323 178.249 96.7519 178.102 96.8276C177.955 96.9033 177.787 96.9312 177.624 96.9075C177.46 96.8837 177.308 96.8096 177.188 96.6953C175.085 94.6693 173.329 92.3121 171.991 89.7178C170.742 94.8668 169.453 101.986 169.702 108.734C169.713 108.897 169.673 109.059 169.588 109.199C169.504 109.339 169.378 109.449 169.229 109.515C169.08 109.582 168.914 109.601 168.753 109.57C168.592 109.539 168.445 109.46 168.331 109.344C165.208 106.199 158.605 97.3828 163.276 82.5257C150.559 91.5316 140.135 87.9624 136.182 85.9389C136.043 85.8624 135.929 85.7463 135.856 85.6053C135.782 85.4642 135.752 85.3046 135.769 85.1465C135.787 84.9884 135.85 84.8389 135.953 84.717C136.055 84.5951 136.191 84.5062 136.344 84.4615Z" fill="url(#paint10_linear_3009_3)"/>
<path d="M144.708 107.822L151.3 92.2923C153.367 91.9399 155.393 91.3779 157.346 90.615C157.203 93.0112 157.347 95.4158 157.776 97.7778L145.488 108.398C145.407 108.486 145.296 108.541 145.176 108.553C145.056 108.564 144.937 108.531 144.84 108.46C144.743 108.388 144.676 108.284 144.652 108.166C144.627 108.049 144.647 107.926 144.708 107.822Z" fill="url(#paint11_linear_3009_3)"/>
<path d="M218.745 7.24571C203.822 -3.61307 185.372 -3.68134 170.434 16.8172C160.626 30.2798 157.259 45.8682 160.318 58.063C163.285 55.8932 166.023 53.2797 167.043 50.8856C168.58 47.2872 168.238 43.4839 168.673 43.0499C168.731 42.9914 168.721 42.9524 168.673 42.9134C168.624 42.8744 168.57 42.9134 168.482 42.9134C167.853 43.1621 165.501 46.1023 164.661 46.5216C164.544 46.5801 164.427 46.6679 164.276 46.6143C164.23 46.5941 164.193 46.559 164.17 46.5147C164.146 46.4703 164.139 46.4195 164.149 46.3705C164.237 45.9706 164.779 46.1169 165.057 45.2441C165.304 44.3294 165.49 43.3993 165.613 42.4599C165.803 41.3816 166.25 40.3648 166.916 39.4953C167.739 38.5124 168.681 37.636 169.722 36.8867C170.735 36.1207 171.828 35.4668 172.982 34.9363C173.055 34.9071 173.128 34.8632 173.108 34.7705C173.089 34.6779 173.021 34.6974 172.952 34.6925C172.366 34.6536 171.787 34.5405 171.23 34.3561C170.385 34.0917 169.637 33.5826 169.083 32.8933C168.494 32.235 168.034 31.4726 167.726 30.6455C167.575 30.2213 167.433 29.7922 167.297 29.368C167.265 29.2956 167.261 29.214 167.286 29.1392C167.312 29.0643 167.364 29.0016 167.433 28.9633C167.584 28.8804 167.619 29.051 167.697 29.1193C167.984 29.4133 168.333 29.6391 168.719 29.7801C169.105 29.921 169.518 29.9735 169.927 29.9336C170.933 29.8214 171.919 29.5687 172.855 29.1827C173.894 28.7829 174.899 28.305 175.909 27.8369C177 27.3018 178.119 26.8281 179.262 26.418L180.54 25.9792C180.223 25.6915 179.828 25.6964 179.496 25.5403C178.905 25.2252 178.35 24.8459 177.842 24.4091C177.742 24.3297 177.661 24.2278 177.608 24.1117C177.215 23.4253 177.078 22.6219 177.222 21.8444C177.276 21.6347 177.334 21.4348 177.544 21.3568C177.754 21.2787 177.871 21.4982 177.983 21.6493C178.085 21.8069 178.227 21.935 178.394 22.0206C178.561 22.1062 178.748 22.1463 178.935 22.1369C180.088 22.0349 181.23 21.8392 182.351 21.5518C185.43 20.8545 188.524 20.2353 191.701 20.1963C192.111 20.1963 192.525 20.1621 192.935 20.1963C194.243 20.2476 195.547 20.3762 196.839 20.5815C197.293 20.6595 197.752 20.7278 198.196 20.8301C198.781 20.9716 199.352 21.152 199.933 21.3177C200.658 21.5135 201.371 21.7545 202.066 22.0394C202.554 22.2393 203.076 22.4929 203.583 22.6733C204.222 22.9262 204.838 23.2346 205.423 23.5948C206.493 24.1508 207.523 24.7797 208.507 25.477C208.808 25.7613 209.205 25.923 209.62 25.9304C210.392 25.8728 211.141 25.6411 211.811 25.2527C212.494 24.887 213.123 24.4237 213.763 23.9995C213.826 23.9532 213.902 23.9282 213.98 23.9282C214.058 23.9282 214.134 23.9532 214.197 23.9995C214.259 24.0346 214.307 24.0908 214.331 24.1579C214.355 24.225 214.354 24.2986 214.329 24.3652C214.114 25.004 213.938 25.6574 213.694 26.2864C213.524 26.7301 213.304 27.1445 213.123 27.5785C212.798 28.4448 212.235 29.202 211.498 29.7629C211.276 29.9271 211.092 30.1365 210.957 30.3773C211.076 30.3687 211.195 30.3541 211.313 30.3334L217.227 28.9145C220.336 28.266 219.921 28.344 222.151 27.8369C224.381 27.3298 226.489 27.0519 228.68 26.574C228.782 26.557 228.886 26.557 228.988 26.574C229.164 26.5984 229.383 26.574 229.412 26.8227C229.442 27.0714 229.271 27.1348 229.1 27.2177C228.578 27.4663 228.051 27.7053 227.514 27.9052C225.728 28.6073 223.952 29.3436 222.146 30.036C221.024 30.4699 221.697 30.2603 220.565 30.665C219.433 31.0697 218.198 31.6402 217.008 32.1278C215.397 32.7763 213.782 33.4199 212.157 34.044C211.928 34.1367 211.874 34.2293 211.899 34.4585C211.988 35.5435 211.862 36.6356 211.528 37.6717C211.384 38.1614 211.271 38.6598 211.191 39.1638C210.991 40.4998 211.308 41.7968 211.625 43.0646C212.016 44.6639 212.26 46.2876 212.518 47.9113C212.718 49.1888 212.796 50.4858 213.079 51.7584C213.35 52.724 213.469 53.7258 213.431 54.7279C213.422 54.8977 213.461 55.0666 213.543 55.2155C213.614 55.3502 213.658 55.4976 213.672 55.6493C213.686 55.801 213.67 55.954 213.625 56.0995C213.58 56.245 213.506 56.38 213.408 56.4969C213.31 56.6138 213.19 56.7103 213.055 56.7807C212.647 57.0273 212.194 57.1929 211.723 57.2683C211.485 57.3012 211.26 57.396 211.071 57.5432C210.882 57.6904 210.735 57.8848 210.644 58.1069C210.424 58.5759 210.05 58.9557 209.584 59.1835C209.118 59.4114 208.588 59.4736 208.082 59.3601C207.853 59.2703 207.599 59.2703 207.37 59.3601C207.229 59.4376 207.07 59.4741 206.909 59.4655C206.749 59.4569 206.594 59.4034 206.462 59.3113C206.077 59.0791 205.661 58.9003 205.228 58.7798C205.033 58.7358 204.849 58.6491 204.692 58.526C204.534 58.4029 204.405 58.2465 204.315 58.0679C204.188 57.8443 204.023 57.6446 203.827 57.4779C203.664 57.3436 203.539 57.1689 203.465 56.9713C203.39 56.7737 203.369 56.56 203.403 56.3516C203.518 55.9893 203.608 55.6195 203.671 55.2447C203.704 54.8366 203.631 54.4268 203.461 54.0546C203.29 53.6824 203.026 53.3602 202.695 53.1188C201.915 52.6186 201.189 52.0385 200.528 51.3878C200.016 50.8174 199.421 50.3346 198.918 49.7446C198.46 49.1836 198.038 48.594 197.654 47.9795C197.256 47.3053 196.971 46.5708 196.81 45.8049C196.781 45.6878 196.81 45.5074 196.649 45.4879C196.488 45.4684 196.444 45.6293 196.371 45.7317C196.011 46.3055 195.685 46.8998 195.395 47.5114C195.05 48.1938 194.791 48.9161 194.624 49.6617C194.279 51.0341 194.238 52.465 194.502 53.8551C194.809 55.5861 195.146 57.3073 195.375 59.048C195.735 61.3451 195.684 63.6878 195.224 65.967C195.041 67.0329 194.749 68.0771 194.351 69.0827C193.863 70.2335 192.345 74.0952 189.71 77.1086C189.422 77.4353 188.978 77.9082 188.407 78.4543C200.929 77.5767 214.665 69.5947 224.44 56.1858C239.426 35.6482 233.692 18.124 218.745 7.24571Z" fill="url(#paint12_linear_3009_3)"/>
<path d="M228.111 22.5858C230.521 18.759 225.256 11.1178 216.35 5.51867C207.445 -0.080445 198.272 -1.51717 195.863 2.30966C193.453 6.13649 198.718 13.7777 207.623 19.3769C216.529 24.976 225.701 26.4127 228.111 22.5858Z" fill="url(#paint13_linear_3009_3)"/>
</g>
<defs>
<linearGradient id="paint0_linear_3009_3" x1="26.2976" y1="158.488" x2="8.09802" y2="126.943" gradientUnits="userSpaceOnUse">
<stop stop-color="#FA0D1B"/>
<stop offset="1" stop-color="#FDE635"/>
</linearGradient>
<linearGradient id="paint1_linear_3009_3" x1="58.9" y1="157.889" x2="40.8759" y2="126.641" gradientUnits="userSpaceOnUse">
<stop stop-color="#FA0D1B"/>
<stop offset="1" stop-color="#FDE635"/>
</linearGradient>
<linearGradient id="paint2_linear_3009_3" x1="98.8515" y1="161.029" x2="77.2499" y2="123.586" gradientUnits="userSpaceOnUse">
<stop stop-color="#FA0D1B"/>
<stop offset="1" stop-color="#FDE635"/>
</linearGradient>
<linearGradient id="paint3_linear_3009_3" x1="132.181" y1="159.454" x2="112.431" y2="125.225" gradientUnits="userSpaceOnUse">
<stop stop-color="#FA0D1B"/>
<stop offset="1" stop-color="#FDE635"/>
</linearGradient>
<linearGradient id="paint4_linear_3009_3" x1="164.027" y1="160.775" x2="142.801" y2="123.986" gradientUnits="userSpaceOnUse">
<stop stop-color="#FA0D1B"/>
<stop offset="1" stop-color="#FDE635"/>
</linearGradient>
<linearGradient id="paint5_linear_3009_3" x1="198.089" y1="160.775" x2="176.862" y2="123.986" gradientUnits="userSpaceOnUse">
<stop stop-color="#FA0D1B"/>
<stop offset="1" stop-color="#FDE635"/>
</linearGradient>
<linearGradient id="paint6_linear_3009_3" x1="232.15" y1="160.775" x2="210.924" y2="123.986" gradientUnits="userSpaceOnUse">
<stop stop-color="#FA0D1B"/>
<stop offset="1" stop-color="#FDE635"/>
</linearGradient>
<linearGradient id="paint7_linear_3009_3" x1="254.236" y1="156.172" x2="238.196" y2="128.373" gradientUnits="userSpaceOnUse">
<stop stop-color="#FA0D1B"/>
<stop offset="1" stop-color="#FDE635"/>
</linearGradient>
<linearGradient id="paint8_linear_3009_3" x1="282.544" y1="157.889" x2="264.52" y2="126.641" gradientUnits="userSpaceOnUse">
<stop stop-color="#FA0D1B"/>
<stop offset="1" stop-color="#FDE635"/>
</linearGradient>
<linearGradient id="paint9_linear_3009_3" x1="322.496" y1="161.029" x2="300.894" y2="123.586" gradientUnits="userSpaceOnUse">
<stop stop-color="#FA0D1B"/>
<stop offset="1" stop-color="#FDE635"/>
</linearGradient>
<linearGradient id="paint10_linear_3009_3" x1="151.832" y1="99.8598" x2="168.652" y2="70.6996" gradientUnits="userSpaceOnUse">
<stop stop-color="#FA0D1B"/>
<stop offset="1" stop-color="#FDE635"/>
</linearGradient>
<linearGradient id="paint11_linear_3009_3" x1="146.333" y1="109.256" x2="157.153" y2="90.4953" gradientUnits="userSpaceOnUse">
<stop stop-color="#FA0D1B"/>
<stop offset="1" stop-color="#FDE635"/>
</linearGradient>
<linearGradient id="paint12_linear_3009_3" x1="177.027" y1="71.8181" x2="215.522" y2="5.09311" gradientUnits="userSpaceOnUse">
<stop stop-color="#FA0D1B"/>
<stop offset="1" stop-color="#FDE635"/>
</linearGradient>
<linearGradient id="paint13_linear_3009_3" x1="217.127" y1="5.24534" x2="208.548" y2="19.2673" gradientUnits="userSpaceOnUse">
<stop stop-color="#FC8129"/>
<stop offset="0.66" stop-color="#FDE635" stop-opacity="0"/>
</linearGradient>
<clipPath id="clip0_3009_3">
<rect width="327" height="160" fill="white"/>
</clipPath>
</defs>
</svg>
